Hanif_Shallow_7_5_grf.mot
version=1
nRows=47
nColumns=19
inDegrees=yes
endheader
time	right_ground_force_vx	right_ground_force_vy	right_ground_force_vz	right_ground_force_px	right_ground_force_py	right_ground_force_pz	right_ground_torque_x	right_ground_torque_y	right_ground_torque_z	left_ground_force_vx	left_ground_force_vy	left_ground_force_vz	left_ground_force_px	left_ground_force_py	left_ground_force_pz	left_ground_torque_x	left_ground_torque_y	left_ground_torque_z
6.700000	-10.549700	312.844000	42.517200	0.203304	0.000000	-1.425400	-25.313100	1.933000	1.431150	-9.645040	301.468000	-46.736100	0.206969	0.000000	-0.984640	24.778000	-4.077990	2.905590
6.705000	-10.123300	311.716000	42.506000	0.202784	0.000000	-1.425430	-25.215600	2.161420	1.290010	-9.551070	303.630000	-46.823700	0.206866	0.000000	-0.984096	24.787700	-4.135130	2.891420
6.710000	-9.501940	312.589000	43.036600	0.201916	0.000000	-1.425450	-25.275500	2.349080	1.038940	-9.512760	304.061000	-46.309300	0.207210	0.000000	-0.984121	24.833400	-4.256090	3.008750
6.715000	-8.964260	313.129000	43.334500	0.200918	0.000000	-1.425430	-25.322400	2.559160	0.747161	-10.195500	305.945000	-46.219800	0.206869	0.000000	-0.983559	24.826000	-4.243270	2.914770
6.720000	-8.058570	314.861000	43.563300	0.201139	0.000000	-1.426360	-25.163600	2.762840	0.836624	-9.590010	307.429000	-46.850000	0.207252	0.000000	-0.983495	24.915100	-4.289300	3.052540
6.725000	-7.753360	316.073000	43.004500	0.199914	0.000000	-1.426780	-25.131500	3.159480	0.485912	-9.465460	309.073000	-47.147800	0.206769	0.000000	-0.982769	24.824000	-4.459390	2.936240
6.730000	-6.546210	318.359000	43.257100	0.199817	0.000000	-1.425710	-25.637600	3.248050	0.453559	-8.607020	311.202000	-48.430600	0.206876	0.000000	-0.983170	25.099400	-4.407960	2.984880
6.735000	-5.632300	321.973000	43.427900	0.198453	0.000000	-1.427720	-25.271800	3.568210	0.033753	-8.518560	315.381000	-48.568100	0.206472	0.000000	-0.982420	25.196600	-4.527420	2.890950
6.740000	-4.772020	324.532000	43.263500	0.198313	0.000000	-1.426670	-25.805600	3.810060	0.001011	-8.270130	315.968000	-48.837700	0.206493	0.000000	-0.983289	25.513500	-4.553290	2.906980
6.745000	-3.651730	326.361000	43.507400	0.196683	0.000000	-1.426740	-25.915000	4.082870	-0.519042	-8.116220	318.270000	-49.271200	0.206575	0.000000	-0.982487	25.440100	-4.594540	2.953800
6.750000	-2.963010	330.983000	43.178800	0.196215	0.000000	-1.427740	-25.943200	4.322330	-0.679972	-7.474350	320.251000	-49.375600	0.206707	0.000000	-0.981775	25.354700	-4.523220	2.987220
6.755000	-2.771920	333.641000	43.060500	0.196571	0.000000	-1.427320	-26.288200	4.350580	-0.573372	-7.344540	324.625000	-49.330700	0.207308	0.000000	-0.982642	25.979500	-4.611510	3.216940
6.760000	-2.568940	336.168000	42.778000	0.196396	0.000000	-1.427160	-26.538700	4.528830	-0.628969	-7.543220	328.597000	-49.909300	0.207791	0.000000	-0.982396	26.218300	-4.638790	3.414740
6.765000	-2.326290	339.089000	42.077200	0.196476	0.000000	-1.428250	-26.394900	4.692970	-0.608579	-7.365990	329.141000	-49.600000	0.208407	0.000000	-0.981993	26.123800	-4.549480	3.603290
6.770000	-1.886380	340.542000	42.966500	0.195495	0.000000	-1.428260	-26.500800	4.901740	-0.921601	-8.034990	332.313000	-49.918600	0.208512	0.000000	-0.981503	26.222500	-4.521700	3.666360
6.775000	-0.860105	342.516000	43.448000	0.195758	0.000000	-1.428620	-26.515800	5.085530	-0.822942	-7.921410	330.346000	-49.546900	0.208738	0.000000	-0.982197	26.294100	-4.426750	3.709540
6.780000	-0.032004	342.624000	43.546200	0.194622	0.000000	-1.429170	-26.325700	5.100170	-1.223740	-8.459440	331.359000	-49.268500	0.209729	0.000000	-0.982419	26.456500	-4.340630	4.040450
6.785000	0.415067	344.283000	44.263600	0.194646	0.000000	-1.428910	-26.535100	5.243390	-1.203770	-8.697010	331.060000	-48.093000	0.209788	0.000000	-0.980857	25.919000	-4.322100	4.035120
6.790000	0.392232	342.143000	44.174200	0.194364	0.000000	-1.429590	-26.137400	5.248530	-1.286750	-9.220560	330.515000	-47.346800	0.210327	0.000000	-0.981759	26.183200	-4.231130	4.193380
6.795000	0.386993	341.875000	43.564400	0.193429	0.000000	-1.431310	-25.527500	5.213160	-1.622430	-8.619470	328.746000	-46.970000	0.209781	0.000000	-0.981580	25.971000	-4.131000	3.968270
6.800000	0.606279	340.470000	44.216300	0.193656	0.000000	-1.430720	-25.621200	5.333770	-1.509470	-8.528130	327.805000	-46.112300	0.210667	0.000000	-0.981075	25.733400	-4.222920	4.253530
6.805000	0.889243	340.936000	43.793500	0.193613	0.000000	-1.432140	-25.168600	5.496660	-1.515820	-8.460090	327.334000	-45.987200	0.210183	0.000000	-0.980341	25.453700	-4.191470	4.079810
6.810000	0.886014	339.540000	43.525400	0.193563	0.000000	-1.431650	-25.233300	5.328260	-1.546860	-7.596270	325.824000	-45.788100	0.210268	0.000000	-0.981163	25.590800	-4.226400	4.088900
6.815000	1.117020	339.671000	43.440000	0.193117	0.000000	-1.432510	-24.944100	5.534560	-1.678930	-8.094080	327.734000	-45.535900	0.210561	0.000000	-0.981010	25.697000	-4.168230	4.195020
6.820000	1.051650	339.609000	42.931000	0.192734	0.000000	-1.433000	-24.774400	5.486640	-1.823020	-8.534380	328.422000	-45.221500	0.210568	0.000000	-0.980404	25.560500	-4.229260	4.209840
6.825000	1.110240	341.167000	42.307400	0.193784	0.000000	-1.433910	-24.578100	5.497460	-1.481460	-8.286080	330.950000	-44.905200	0.210379	0.000000	-0.979895	25.580000	-4.154810	4.148460
6.830000	0.630197	338.665000	41.793300	0.192976	0.000000	-1.433170	-24.654100	5.577500	-1.732300	-8.729050	329.470000	-44.250800	0.210349	0.000000	-0.979866	25.464200	-4.128820	4.115990
6.835000	1.095310	338.126000	41.420100	0.192087	0.000000	-1.434020	-24.320800	5.675010	-2.030270	-8.749170	329.896000	-44.531900	0.209995	0.000000	-0.979518	25.383700	-4.194950	4.014030
6.840000	0.725774	340.347000	40.531400	0.192459	0.000000	-1.433890	-24.532100	5.667710	-1.934400	-8.834590	329.929000	-44.456900	0.209636	0.000000	-0.980313	25.650700	-4.224010	3.898100
6.845000	-0.086591	341.381000	40.480200	0.192667	0.000000	-1.433810	-24.647100	5.658740	-1.866790	-8.606180	330.608000	-44.074600	0.209762	0.000000	-0.979904	25.561500	-4.153400	3.926570
6.850000	-1.411290	343.672000	40.317500	0.192353	0.000000	-1.435980	-24.086000	5.716550	-1.981970	-9.500860	332.267000	-43.887900	0.209435	0.000000	-0.979897	25.703800	-4.217630	3.843300
6.855000	-1.959260	344.031000	40.321500	0.191920	0.000000	-1.435780	-24.187400	5.622210	-2.142980	-9.428780	332.451000	-43.314300	0.208485	0.000000	-0.978707	25.319600	-4.232250	3.513020
6.860000	-2.701700	346.149000	40.189700	0.191606	0.000000	-1.437790	-23.655000	5.726920	-2.258290	-9.000930	331.656000	-42.758700	0.208493	0.000000	-0.979274	25.440400	-4.244620	3.499440
6.865000	-2.169610	344.128000	39.930200	0.190886	0.000000	-1.436570	-23.926200	5.707560	-2.498720	-9.924960	330.273000	-42.160100	0.208064	0.000000	-0.979002	25.262300	-4.255270	3.346290
6.870000	-2.736580	341.774000	39.812200	0.190532	0.000000	-1.437040	-23.613100	5.747630	-2.588260	-9.623000	329.962000	-41.992800	0.207226	0.000000	-0.978251	24.980800	-4.137730	3.041770
6.875000	-2.544170	343.775000	39.915400	0.189850	0.000000	-1.438800	-23.142800	5.740720	-2.849860	-10.037900	328.824000	-40.870100	0.206426	0.000000	-0.978991	25.149800	-4.286880	2.773290
6.880000	-2.182100	341.500000	39.303500	0.189136	0.000000	-1.438450	-23.104600	5.775770	-3.077410	-9.026740	328.043000	-40.328700	0.206201	0.000000	-0.977777	24.675500	-4.361700	2.684290
6.885000	-1.687470	343.418000	39.096100	0.188780	0.000000	-1.439820	-22.756200	5.965840	-3.211080	-8.885090	328.177000	-39.548300	0.205146	0.000000	-0.978095	24.789000	-4.468650	2.332340
6.890000	-1.098430	343.550000	39.573300	0.187552	0.000000	-1.439110	-22.997500	5.993720	-3.634220	-8.180940	327.598000	-39.062900	0.203408	0.000000	-0.977711	24.608700	-4.598010	1.753560
6.895000	-0.787822	342.973000	39.049300	0.187244	0.000000	-1.439920	-22.677800	6.074370	-3.734010	-8.089020	325.079000	-38.465400	0.202674	0.000000	-0.977687	24.411300	-4.610230	1.498560
6.900000	0.217772	342.084000	38.911700	0.186235	0.000000	-1.440600	-22.368600	6.260400	-4.059170	-7.215820	325.950000	-38.363200	0.201700	0.000000	-0.977446	24.381900	-4.653120	1.172590
6.905000	1.266800	339.924000	38.458500	0.184686	0.000000	-1.441110	-22.037000	6.336320	-4.564800	-6.914710	323.313000	-37.818200	0.200943	0.000000	-0.977545	24.211900	-4.625240	0.910208
6.910000	2.787500	336.855000	39.152100	0.184019	0.000000	-1.441710	-21.610800	6.430580	-4.729540	-7.061330	323.176000	-37.214200	0.200290	0.000000	-0.976805	23.965100	-4.638300	0.688950
6.915000	2.710690	335.204000	39.337600	0.182595	0.000000	-1.442180	-21.347000	6.602580	-5.160040	-6.795050	323.006000	-37.030200	0.199410	0.000000	-0.977343	24.124800	-4.816040	0.416937
6.920000	3.001010	337.068000	38.207200	0.181658	0.000000	-1.442130	-21.477000	6.776560	-5.515700	-6.124160	324.947000	-36.184900	0.198209	0.000000	-0.976801	24.081300	-4.905810	0.007507
6.925000	2.971210	334.557000	38.200800	0.181214	0.000000	-1.443240	-20.945700	6.681780	-5.625240	-5.979740	323.219000	-36.053100	0.198067	0.000000	-0.975917	23.665100	-4.872310	-0.040441
6.930000	2.613670	335.516000	37.528000	0.180695	0.000000	-1.444570	-20.566500	6.693320	-5.827430	-6.139860	323.543000	-35.500600	0.197176	0.000000	-0.976057	23.736000	-4.869310	-0.341036
